<svg width="31" height="31" viewBox="0 0 31 31" fill="none" xmlns="http://www.w3.org/2000/svg"><path fill-rule="evenodd" clip-rule="evenodd" d="M15.5 0C6.944 0 0 6.944 0 15.5C0 24.056 6.944 31 15.5 31C24.056 31 31 24.056 31 15.5C31 6.944 24.056 0 15.5 0ZM15.5002 27.9C8.66471 27.9 3.10021 22.3355 3.10021 15.5C3.10021 8.66449 8.66471 3.09999 15.5002 3.09999C22.3357 3.09999 27.9002 8.66449 27.9002 15.5C27.9002 22.3355 22.3357 27.9 15.5002 27.9ZM12.4001 18.8635L22.6146 8.64901L24.8001 10.85L12.4001 23.25L6.20007 17.05L8.38557 14.8645L12.4001 18.8635Z" fill="#F2F2F2"/></svg>