<svg width="26" height="29" viewBox="0 0 26 29" fill="none" xmlns="http://www.w3.org/2000/svg"><path fill-rule="evenodd" clip-rule="evenodd" d="M17.53 9.66666C17.4338 7.65278 16.3763 6.28333 13.5241 6.28333C12.8832 6.28333 12.2903 6.36389 11.7775 6.49278L9.35798 4.06C9.9188 3.81833 10.4956 3.60889 11.1206 3.48V0H15.9276V3.52833C19.2765 4.35 20.959 6.89555 21.0712 9.66666H17.53ZM0 3.75391L2.25932 1.48224L25.6857 25.0367L23.4264 27.3084L19.8692 23.7317C18.8597 24.65 17.4656 25.2461 15.9274 25.5361V29H11.1203V25.5039C8.04381 24.8434 5.41595 22.8617 5.22367 19.3334H8.74885C8.9251 21.2345 10.223 22.7167 13.5239 22.7167C15.7191 22.7167 16.8567 22.04 17.4015 21.2506L11.7773 15.5956C8.01176 14.4839 5.51209 12.6472 5.51209 9.29613L0 3.75391Z" fill="white"/></svg>