<svg width="38" height="11" viewBox="0 0 38 11" fill="none" xmlns="http://www.w3.org/2000/svg"><ellipse cx="2.93301" cy="5" rx="2.06997" ry="2" fill="black" fill-opacity="0.54"/><path d="M13.6928 2.78C13.7928 2.99 14.4928 3.32 14.9228 3.5C15.5628 3.77 16.1528 3.99 16.8428 4.22L17.2028 3.42C16.3928 3.16 15.8228 2.96 15.2928 2.72C14.6128 2.41 14.1828 2.11 14.1828 1.68V1.39H16.8228V0.57H10.5628V1.39H13.1928V1.68C13.1928 2.11 12.7428 2.45 12.0828 2.73C11.5428 2.96 10.9928 3.16 10.1728 3.42L10.5428 4.22C11.2128 4 11.8128 3.78 12.4828 3.5C12.9028 3.32 13.5828 2.99 13.6828 2.78H13.6928ZM14.3128 7.37V5.57H17.9228V4.73H9.46282V5.57H13.3128V7.37H14.3128ZM11.6728 6.54H10.6828V9.3H16.8828V8.44H11.6728V6.54ZM26.2044 9.4V0.179999H25.2144V9.4H26.2044ZM23.5244 6.98V0.93H22.5444V3.11H20.2144V0.93H19.2344V6.98H23.5244ZM20.2144 3.95H22.5444V6.13H20.2144V3.95ZM31.3959 5.25V6.06C29.9259 6.18 29.0159 6.82 29.0159 7.68V8.02C29.0159 8.96 30.1359 9.66 31.8959 9.66C33.6659 9.66 34.7759 8.95 34.7759 8.02V7.68C34.7759 6.83 33.8659 6.18 32.3959 6.06V5.25H36.1259V4.41H27.6659V5.25H31.3959ZM31.8959 2.58C31.9959 2.79 32.6959 3.12 33.1259 3.3C33.7659 3.56 34.3859 3.79 35.0459 4.02L35.4059 3.22C34.6259 2.97 34.0259 2.75 33.4959 2.52C32.8059 2.22 32.3859 1.91 32.3859 1.48V1.34H35.0259V0.52H28.7659V1.34H31.3959V1.48C31.3959 1.91 30.9559 2.25 30.2859 2.53C29.7459 2.75 29.1659 2.97 28.3759 3.22L28.7459 4.02C29.3859 3.8 30.0159 3.57 30.6859 3.3C31.1059 3.12 31.7859 2.79 31.8859 2.58H31.8959ZM31.8959 6.85C33.0259 6.85 33.7959 7.26 33.7959 7.74V7.96C33.7959 8.44 33.0259 8.85 31.8959 8.85C30.7659 8.85 29.9959 8.44 29.9959 7.96V7.74C29.9959 7.26 30.7659 6.85 31.8959 6.85Z" fill="black" fill-opacity="0.54"/></svg>