<svg width="40" height="40" viewBox="0 0 40 40" fill="none" xmlns="http://www.w3.org/2000/svg"><path d="M40 20C40 31.0457 31.0457 40 20 40C8.9543 40 0 31.0457 0 20C0 8.9543 8.9543 0 20 0C31.0457 0 40 8.9543 40 20Z" fill="#4C95F7"/><path fill-rule="evenodd" clip-rule="evenodd" d="M28.8674 24.6317L28.0341 28.2428C27.9469 28.6208 27.6104 28.8887 27.2224 28.8889C18.3335 28.8889 11.1113 21.6828 11.1113 12.7778C11.1249 12.3946 11.3871 12.0653 11.7574 11.9661L15.3685 11.1328C15.4301 11.1198 15.4928 11.1125 15.5558 11.1111C15.884 11.1277 16.1773 11.321 16.3219 11.6161L17.9885 15.505C18.0294 15.6099 18.0521 15.7209 18.0558 15.8333C18.0422 16.08 17.9325 16.3116 17.7502 16.4783L15.6452 18.2006C16.9207 20.9038 19.0964 23.0796 21.7997 24.355L23.5219 22.25C23.6886 22.0677 23.9202 21.958 24.1669 21.9444C24.2794 21.9481 24.3904 21.9708 24.4952 22.0117L28.3841 23.6783C28.6793 23.8227 28.8728 24.1162 28.8891 24.4444C28.888 24.5074 28.8807 24.5701 28.8674 24.6317H28.8674Z" fill="white"/></svg>