<svg width="38" height="11" viewBox="0 0 38 11" fill="none" xmlns="http://www.w3.org/2000/svg"><path d="M11.5428 7.9C11.5428 8.87 12.6028 9.66 14.3728 9.66C16.1428 9.66 17.2028 8.87 17.2028 7.9V7.5C17.2028 6.53 16.1428 5.74 14.3728 5.74C12.6028 5.74 11.5428 6.53 11.5428 7.5V7.9ZM14.3328 2.55C14.3328 1.66 13.6128 0.53 12.0428 0.53C10.4728 0.53 9.75282 1.66 9.75282 2.55V3.06C9.75282 3.95 10.4728 5.08 12.0428 5.08C13.6128 5.08 14.3328 3.95 14.3328 3.06V2.55ZM17.1628 5.62V0.179999H16.1928V1.33H14.7428V2.18H16.1928V3.41H14.7428V4.26H16.1928V5.62H17.1628ZM16.2328 7.84C16.2328 8.33 15.5128 8.85 14.3728 8.85C13.2328 8.85 12.5128 8.33 12.5128 7.84V7.56C12.5128 7.07 13.2328 6.55 14.3728 6.55C15.5128 6.55 16.2328 7.07 16.2328 7.56V7.84ZM13.3828 3.01C13.3828 3.6 12.9628 4.22 12.0428 4.22C11.1228 4.22 10.7028 3.6 10.7028 3.01V2.6C10.7028 2.01 11.1228 1.39 12.0428 1.39C12.9628 1.39 13.3828 2.01 13.3828 2.6V3.01ZM26.2644 4.9V0.179999H25.2844V2.18H23.4144C23.2844 1.33 22.5244 0.499999 21.1444 0.499999C19.6244 0.499999 18.8544 1.5 18.8544 2.43V2.81C18.8544 3.74 19.6244 4.74 21.1444 4.74C22.5444 4.74 23.3044 3.89 23.4144 3.03H25.2844V4.9H26.2644ZM25.2844 5.35V6.52H21.4944V5.35H20.5144V9.4H26.2644V5.35H25.2844ZM21.1444 3.89C20.2944 3.89 19.8044 3.31 19.8044 2.76V2.48C19.8044 1.93 20.2944 1.36 21.1444 1.36C21.9944 1.36 22.4844 1.93 22.4844 2.48V2.76C22.4844 3.31 21.9944 3.89 21.1444 3.89ZM21.4944 8.56V7.35H25.2844V8.56H21.4944ZM31.3959 5.25V6.06C29.9259 6.18 29.0159 6.82 29.0159 7.68V8.02C29.0159 8.96 30.1359 9.66 31.8959 9.66C33.6659 9.66 34.7759 8.95 34.7759 8.02V7.68C34.7759 6.83 33.8659 6.18 32.3959 6.06V5.25H36.1259V4.41H27.6659V5.25H31.3959ZM31.8959 2.58C31.9959 2.79 32.6959 3.12 33.1259 3.3C33.7659 3.56 34.3859 3.79 35.0459 4.02L35.4059 3.22C34.6259 2.97 34.0259 2.75 33.4959 2.52C32.8059 2.22 32.3859 1.91 32.3859 1.48V1.34H35.0259V0.52H28.7659V1.34H31.3959V1.48C31.3959 1.91 30.9559 2.25 30.2859 2.53C29.7459 2.75 29.1659 2.97 28.3759 3.22L28.7459 4.02C29.3859 3.8 30.0159 3.57 30.6859 3.3C31.1059 3.12 31.7859 2.79 31.8859 2.58H31.8959ZM31.8959 6.85C33.0259 6.85 33.7959 7.26 33.7959 7.74V7.96C33.7959 8.44 33.0259 8.85 31.8959 8.85C30.7659 8.85 29.9959 8.44 29.9959 7.96V7.74C29.9959 7.26 30.7659 6.85 31.8959 6.85Z" fill="#4C95F7"/><ellipse cx="2.93301" cy="5" rx="2.06997" ry="2" fill="#4C95F7"/></svg>